<?xml version="1.0" encoding="utf-8"?>
<!-- Generator: Adobe Illustrator 16.0.0, SVG Export Plug-In . SVG Version: 6.00 Build 0)  -->
<!DOCTYPE svg PUBLIC "-//W3C//DTD SVG 1.1//EN" "http://www.w3.org/Graphics/SVG/1.1/DTD/svg11.dtd">
<svg version="1.1" id="Layer_1" xmlns="http://www.w3.org/2000/svg" xmlns:xlink="http://www.w3.org/1999/xlink" x="0px" y="0px"
	 width="230px" height="150px" viewBox="0 0 230 150" enable-background="new 0 0 230 150" xml:space="preserve">
<rect fill="#151415" width="230" height="150"/>
<rect x="-65.833" y="3.134" transform="matrix(0.7843 -0.6203 0.6203 0.7843 -19.9397 84.5776)" fill="#FFFFFF" width="355.001" height="135.662"/>
<path fill="none" stroke="#151415" stroke-width="3" stroke-miterlimit="10" d="M147.5,111.654c0,3.873-2.238,6.846-5,6.846h-56
	c-2.762,0-5-2.973-5-6.846V34.513c0-3.873,2.238-7.013,5-7.013h56c2.762,0,5,3.14,5,7.013V111.654z"/>
<rect x="90.5" y="37.5" fill="none" stroke="#151415" stroke-width="3" stroke-miterlimit="10" width="48" height="36"/>
<g>
	<rect x="90.5" y="83.5" fill="none" stroke="#151415" stroke-width="3" stroke-miterlimit="10" width="11" height="7"/>
	<rect x="108.5" y="83.5" fill="none" stroke="#151415" stroke-width="3" stroke-miterlimit="10" width="11" height="7"/>
	<rect x="126.5" y="83.5" fill="none" stroke="#151415" stroke-width="3" stroke-miterlimit="10" width="11" height="7"/>
</g>
<g>
	<rect x="90.5" y="94.5" fill="none" stroke="#151415" stroke-width="3" stroke-miterlimit="10" width="11" height="7"/>
	<rect x="108.5" y="94.5" fill="none" stroke="#151415" stroke-width="3" stroke-miterlimit="10" width="11" height="7"/>
	<rect x="126.5" y="94.5" fill="none" stroke="#151415" stroke-width="3" stroke-miterlimit="10" width="11" height="7"/>
</g>
<g>
	<rect x="90.5" y="105.5" fill="none" stroke="#151415" stroke-width="3" stroke-miterlimit="10" width="11" height="7"/>
	<rect x="108.5" y="105.5" fill="none" stroke="#151415" stroke-width="3" stroke-miterlimit="10" width="11" height="7"/>
	<rect x="126.5" y="105.5" fill="none" stroke="#151415" stroke-width="3" stroke-miterlimit="10" width="11" height="7"/>
</g>
<g>
	<path fill="none" stroke="#151415" stroke-width="3" stroke-miterlimit="10" d="M141.5,25.209v-8.458c0-2.335-2.238-4.251-5-4.251
		h-1c-2.762,0-5,1.916-5,4.251v8.458c0,0.838,0.297,1.623,0.795,2.291h9.41C141.203,26.832,141.5,26.047,141.5,25.209z"/>
</g>
<g>
</g>
<g>
</g>
<g>
</g>
<g>
</g>
<g>
</g>
<g>
</g>
</svg>
